<svg width="21" height="24" viewBox="0 0 21 24" fill="none" xmlns="http://www.w3.org/2000/svg">
<path d="M1.75008 20.75C1.75008 22.125 3.06258 23.25 4.66675 23.25H16.3334C17.9376 23.25 19.2501 22.125 19.2501 20.75V8.25C19.2501 6.875 17.9376 5.75 16.3334 5.75H4.66675C3.06258 5.75 1.75008 6.875 1.75008 8.25V20.75ZM19.2501 2H15.6042L14.5688 1.1125C14.3063 0.8875 13.9272 0.75 13.548 0.75H7.45216C7.073 0.75 6.69383 0.8875 6.43133 1.1125L5.39591 2H1.75008C0.947998 2 0.291748 2.5625 0.291748 3.25C0.291748 3.9375 0.947998 4.5 1.75008 4.5H19.2501C20.0522 4.5 20.7084 3.9375 20.7084 3.25C20.7084 2.5625 20.0522 2 19.2501 2Z" fill="white"/>
</svg>
